<?xml version="1.0" encoding="UTF-8"?>
<svg id="Layer_1" data-name="Layer 1" xmlns="http://www.w3.org/2000/svg" viewBox="0 0 1200 1200">
  <defs>
    <style>
      .cls-1 {
        fill: #fff;
      }
    </style>
  </defs>
  <rect class="cls-1" width="1200" height="1200" rx="200" ry="200"/>
  <g>
    <path d="M707.49,970.27v-120.82c50.13-.11,97.03-14.33,138.06-42.26,140.72-95.79,143.57-305.15,9.27-407.91-49.36-37.77-103.04-50.38-164.86-52.19-72.05-2.11-144.98-.03-216.64,0-70.5.03-140.74.2-210.76.96l-116.51-114.46-2.28-3.35,574.54-.62c243.05,10.57,404.56,238.59,343.86,469.03-41.68,158.23-187.57,272.73-354.69,271.61Z"/>
    <path d="M346.81,418.75l121.37,1.11.04,373.15c-3.36,115.12-106.02,201.14-222.6,169.12-61.9-17-110.31-70.61-120.62-132.82,36.19-14.04,72.99-27.19,110.02-39.21,7.21,32.81,32.66,66.91,71,57.71,22.05-5.29,40.8-28.94,40.8-51.5v-377.57Z"/>
    <rect x="513.54" y="419.86" width="121.36" height="550.5"/>
  </g>
</svg>