<?xml version="1.0" encoding="UTF-8"?>
<svg id="Layer_1" data-name="Layer 1" xmlns="http://www.w3.org/2000/svg" viewBox="0 0 1200 1200">
  <defs>
    <style>
      .cls-1 {
        fill: #fff;
      }
    </style>
  </defs>
  <g id="Icon">
    <rect class="cls-1" width="1200" height="1200" rx="200" ry="200"/>
    <g>
      <path d="M724.47,1028.74v-139.9c58.04-.12,112.35-16.59,159.86-48.94,162.94-110.92,166.23-353.33,10.74-472.31-57.15-43.73-119.31-58.34-190.89-60.43-83.43-2.44-167.87-.03-250.85,0-81.64.04-162.96.23-244.04,1.11L74.38,175.75l-2.64-3.88,665.25-.71c281.42,12.24,468.44,276.27,398.16,543.09-48.26,183.22-217.19,315.79-410.69,314.49Z"/>
      <path d="M306.84,390.13l140.53,1.29.05,432.06c-3.89,133.29-122.76,232.9-257.74,195.83-71.68-19.69-127.72-81.75-139.67-153.79,41.9-16.25,84.51-31.48,127.4-45.4,8.34,37.99,37.82,77.47,82.21,66.83,25.53-6.13,47.24-33.51,47.24-59.63v-437.18Z"/>
      <rect x="499.89" y="391.42" width="140.52" height="637.42"/>
    </g>
  </g>
</svg>