<?xml version="1.0" encoding="UTF-8"?>
<svg id="Layer_1" data-name="Layer 1" xmlns="http://www.w3.org/2000/svg" viewBox="0 0 683.79 693.26">
  <g>
    <path d="M14.84,667.13l6.68-1.67c1.34,4.76,4.93,7.47,9.25,7.47,6.4,0,8.85-3.81,8.85-11.44v-28.56h7.25l.04,28.32c.02,12.31-5.47,18.32-15.74,18.24-8.18-.07-14.37-4.53-16.32-12.35Z"/>
    <path d="M77.27,631.08l25.89,47.96h-7.66l-5.34-10.13h-25.95l-5.4,10.13h-7.82l26.29-47.96ZM86.98,662.98l-9.79-18.52-9.83,18.52h19.61Z"/>
    <path d="M133.97,639.46h-26.65v-6.54h38.88l-28.22,39.54h28.32l-.08,6.54h-40.37l28.13-39.54Z"/>
    <path d="M156.39,632.92h7.13v18.3h26.85v-18.3h7.13v46.08h-7.13l-.08-21.32h-26.77v21.32h-7.13v-46.08Z"/>
    <path d="M210.9,632.92h7.13v46.08h-7.13v-46.08Z"/>
    <path d="M231.41,632.92h36.06v6.47h-28.97v11.79l21.06.03v6.3h-21.06v14.99h29.01v6.51h-36.1v-46.08Z"/>
    <path d="M278.21,632.92h7.13l-.04,39.58h25.97v6.5h-33.05v-46.08Z"/>
    <path d="M338.55,632.92l15.66-.05c16.67-.06,26.5,9.95,26.5,23.17s-9.82,22.97-26.5,22.97h-15.66v-46.08ZM354.19,672.52c13.2-.03,19.4-6.8,19.4-16.47s-6.2-16.64-19.4-16.71l-8.55-.03v33.23h8.55Z"/>
    <path d="M391.4,632.92h36.06v6.47h-28.97v11.79l21.05.03v6.3h-21.05v14.99h29.01v6.51h-36.1v-46.08Z"/>
    <path d="M454.43,679.56c-7.49.02-15.26-2.08-20.62-5.47l3.84-5.54c4.92,2.95,11.21,4.62,17.09,4.57,6.44-.06,10.79-2.5,10.88-6.7.09-3.87-2.5-5.3-9.26-6.86l-6.08-1.39c-9.87-2.24-14.43-6.35-14.46-13.13-.04-7.48,7.49-12.59,17.66-12.65,6.7-.04,13.21,1.99,17.98,4.93l-3.62,5.53c-4.07-2.49-8.73-4.06-13.71-4.03-6.34.06-10.75,2.31-10.71,6.41.04,3.56,2.89,5.32,8.94,6.71l6.5,1.46c9.8,2.21,14.09,5.96,14.13,12.98.04,7.82-7.53,13.14-18.54,13.17h0Z"/>
    <path d="M483.2,632.92h7.13v46.08h-7.13v-46.08Z"/>
    <path d="M501.05,656.03c0-13.31,10.48-23.93,24.57-23.93,7.88,0,14.6,3.19,19.12,8.25l-5.46,4.31c-3.25-3.65-8.09-5.88-13.68-5.88-9.93,0-17.47,7.45-17.47,17.24s7.63,17.19,17.56,17.19c5.18,0,10.46-2.3,13.94-6.47v-10.95h7.13v13.26c-4.66,6.38-12.34,10.83-21.05,10.83-14.09,0-24.66-10.57-24.66-23.84Z"/>
    <path d="M558.07,632.93h7.1l28.42,35.81v-35.81h7.09v46.09h-7.06l-28.42-35.73v35.73h-7.13v-46.08Z"/>
    <path d="M611.43,648.33l4.1-7.49h-3.47v-7.92h8.15v8.88l-5.33,9.03-3.46-2.5Z"/>
    <path d="M648.83,679.56c-7.49.02-15.26-2.08-20.62-5.47l3.84-5.54c4.92,2.95,11.22,4.62,17.08,4.57,6.44-.06,10.79-2.5,10.88-6.7.09-3.87-2.5-5.3-9.26-6.86l-6.08-1.39c-9.87-2.24-14.43-6.35-14.46-13.13-.04-7.48,7.49-12.59,17.66-12.65,6.7-.04,13.21,1.99,17.98,4.93l-3.62,5.53c-4.06-2.49-8.73-4.06-13.71-4.03-6.34.06-10.75,2.31-10.71,6.41.04,3.56,2.89,5.32,8.94,6.71l6.5,1.46c9.8,2.21,14.09,5.96,14.13,12.98.04,7.82-7.53,13.14-18.54,13.17h0Z"/>
  </g>
  <g>
    <path d="M419.27,540.48v-88.17c36.08-.08,69.84-10.46,99.37-30.84,101.29-69.91,103.34-222.68,6.67-297.67-35.53-27.56-74.17-36.77-118.66-38.09-51.86-1.54-104.35-.02-155.93,0-50.75.02-101.3.15-151.7.7L15.16,2.89l-1.64-2.44,413.54-.45c174.94,7.71,291.2,174.11,247.51,342.28-30,115.47-135.01,199.02-255.3,198.21Z"/>
    <path d="M159.66,138l87.36.81.03,272.3c-2.42,84.01-76.31,146.78-160.22,123.42-44.56-12.41-79.4-51.52-86.82-96.92,26.05-10.24,52.54-19.84,79.19-28.61,5.19,23.94,23.51,48.83,51.1,42.12,15.87-3.86,29.36-21.12,29.36-37.58V138Z"/>
    <rect x="279.67" y="138.82" width="87.35" height="401.73"/>
  </g>
</svg>