<?xml version="1.0" encoding="UTF-8"?>
<svg id="Layer_1" data-name="Layer 1" xmlns="http://www.w3.org/2000/svg" viewBox="0 0 683.79 540.55">
  <path d="M419.27,540.48v-88.17c36.08-.08,69.84-10.46,99.37-30.84,101.29-69.91,103.34-222.68,6.67-297.67-35.53-27.56-74.17-36.77-118.66-38.09-51.86-1.54-104.35-.02-155.93,0-50.75.02-101.3.15-151.7.7L15.16,2.89l-1.64-2.44,413.54-.45c174.94,7.71,291.2,174.11,247.51,342.28-30,115.47-135.01,199.02-255.3,198.21Z"/>
  <path d="M159.66,138l87.36.81.03,272.3c-2.42,84.01-76.31,146.78-160.22,123.42-44.56-12.41-79.4-51.52-86.82-96.92,26.05-10.24,52.54-19.84,79.19-28.61,5.19,23.94,23.51,48.83,51.1,42.12,15.87-3.86,29.36-21.12,29.36-37.58V138Z"/>
  <rect x="279.67" y="138.82" width="87.35" height="401.73"/>
</svg>